<?xml version="1.0" encoding="UTF-8" ?>
<!DOCTYPE svg PUBLIC "-//W3C//DTD SVG 1.1//EN" "http://www.w3.org/Graphics/SVG/1.1/DTD/svg11.dtd">
<svg width="805pt" height="145pt" viewBox="0 0 805 145" version="1.1" xmlns="http://www.w3.org/2000/svg">
<g id="#252525ff">
</g>
<g id="#e2e2e2ff">
<path fill="#e2e2e2" opacity="1.00" d=" M 66.34 70.30 C 67.76 70.32 69.18 70.33 70.60 70.35 C 70.62 71.79 70.64 73.24 70.66 74.68 C 69.21 74.69 67.75 74.69 66.29 74.70 C 66.31 73.23 66.32 71.77 66.34 70.30 Z" />
</g>
<g id="#ffffffff">
<path fill="#ffffff" opacity="1.00" d=" M 44.59 43.40 C 40.22 37.29 45.58 29.12 52.01 27.41 C 57.11 28.65 61.26 32.88 63.33 37.60 C 65.97 45.18 65.90 53.32 66.80 61.20 C 67.61 61.21 69.23 61.22 70.04 61.23 C 70.68 54.51 70.91 47.72 72.28 41.10 C 73.43 35.41 77.56 30.11 83.13 28.26 C 89.92 27.23 95.39 35.25 93.47 41.44 C 92.00 44.74 89.14 47.11 86.74 49.72 C 81.41 55.33 76.26 61.11 70.92 66.71 C 72.25 67.23 73.57 67.78 74.96 68.15 C 79.59 65.13 82.53 60.23 86.36 56.32 C 89.98 52.63 93.21 48.33 97.73 45.67 C 102.18 43.62 106.74 47.53 108.80 51.24 C 112.16 57.48 106.95 64.76 101.12 67.16 C 94.03 69.81 86.33 69.83 78.91 70.87 C 78.89 71.70 78.85 73.37 78.84 74.20 C 84.83 75.10 90.92 75.12 96.87 76.31 C 101.69 77.20 105.85 80.37 108.45 84.45 C 112.32 90.25 107.67 98.96 101.01 99.87 C 98.05 100.34 95.69 98.15 93.66 96.33 C 87.01 90.07 81.60 82.64 74.95 76.37 C 73.68 76.93 72.41 77.49 71.14 78.05 C 75.41 83.67 80.59 88.49 85.24 93.79 C 88.17 97.17 91.89 100.13 93.57 104.39 C 94.90 109.63 90.91 115.27 85.94 116.80 C 80.38 117.87 76.01 112.84 73.69 108.40 C 70.32 100.67 71.43 91.97 70.06 83.81 C 69.26 83.80 67.68 83.79 66.89 83.78 C 66.14 90.66 65.89 97.61 64.48 104.40 C 63.46 109.79 59.38 114.03 54.91 116.88 C 51.78 118.79 48.37 115.89 46.12 113.86 C 42.48 110.69 42.03 104.80 45.06 101.07 C 51.26 93.06 58.90 86.32 65.58 78.74 C 64.41 77.96 63.24 77.18 62.08 76.41 C 54.82 82.73 49.07 90.52 42.31 97.32 C 39.85 100.06 35.41 100.97 32.37 98.65 C 29.37 96.35 26.67 92.95 26.44 89.05 C 27.41 84.62 30.69 80.90 34.38 78.41 C 41.02 74.74 48.98 76.04 56.10 74.15 C 57.65 73.86 58.02 72.10 58.84 71.03 C 51.91 69.98 44.81 69.88 38.02 68.01 C 32.64 66.72 28.65 62.07 26.77 57.06 C 25.87 54.73 27.29 52.36 28.49 50.44 C 30.46 47.70 33.30 44.69 37.00 45.09 C 39.56 45.24 41.58 47.03 43.32 48.74 C 49.72 55.37 55.24 62.93 62.38 68.81 C 63.52 68.08 64.55 67.19 65.62 66.35 C 58.90 58.44 50.72 51.81 44.59 43.40 M 66.34 70.30 C 66.32 71.77 66.31 73.23 66.29 74.70 C 67.75 74.69 69.21 74.69 70.66 74.68 C 70.64 73.24 70.62 71.79 70.60 70.35 C 69.18 70.33 67.76 70.32 66.34 70.30 Z" />
<path fill="#ffffff" opacity="1.00" d=" M 489.63 34.40 C 491.23 32.09 492.61 29.44 495.05 27.89 C 497.18 27.57 499.35 27.71 501.51 27.73 C 498.38 31.19 494.64 34.59 489.63 34.40 Z" />
<path fill="#ffffff" opacity="1.00" d=" M 352.96 29.87 C 357.33 28.49 361.88 29.78 366.11 31.05 C 365.45 32.63 364.79 34.21 364.14 35.79 C 360.69 35.31 356.89 33.78 353.59 35.52 C 350.20 37.74 349.50 42.27 349.76 46.02 C 349.94 49.28 351.63 52.95 355.03 53.88 C 358.30 54.50 361.60 53.60 364.83 53.10 C 364.82 54.78 364.82 56.47 364.82 58.15 C 359.60 59.40 353.55 60.44 348.78 57.27 C 343.50 53.69 342.66 46.52 343.59 40.69 C 344.26 35.65 347.96 31.09 352.96 29.87 Z" />
<path fill="#ffffff" opacity="1.00" d=" M 551.46 32.01 C 552.54 31.97 553.63 31.93 554.73 31.89 C 554.92 33.46 555.12 35.02 555.33 36.58 C 557.25 36.67 559.18 36.75 561.11 36.83 C 561.12 38.21 561.13 39.58 561.15 40.95 C 559.13 41.06 557.12 41.17 555.11 41.28 C 554.98 45.56 554.99 49.85 555.15 54.13 C 557.32 54.23 559.50 54.32 561.69 54.42 C 561.61 55.84 561.53 57.27 561.47 58.69 C 557.60 59.10 552.00 60.59 549.70 56.37 C 548.15 51.62 548.89 46.51 548.77 41.59 C 547.97 41.31 546.39 40.74 545.60 40.46 C 547.71 37.76 549.67 34.94 551.46 32.01 Z" />
<path fill="#ffffff" opacity="1.00" d=" M 656.15 40.06 C 658.14 36.56 660.34 32.34 664.61 31.37 C 664.84 33.10 665.09 34.84 665.33 36.57 C 667.27 36.66 669.22 36.75 671.18 36.85 C 671.14 38.22 671.12 39.59 671.10 40.96 C 669.08 41.08 667.07 41.18 665.07 41.30 C 664.88 45.57 664.90 49.84 665.14 54.11 C 667.32 54.22 669.50 54.32 671.70 54.43 C 671.61 55.85 671.53 57.27 671.47 58.70 C 667.59 59.10 662.00 60.61 659.70 56.37 C 658.18 51.80 658.93 46.85 658.66 42.11 C 658.04 41.60 656.78 40.57 656.15 40.06 Z" />
<path fill="#ffffff" opacity="1.00" d=" M 377.32 36.37 C 382.41 35.21 388.39 37.87 390.00 43.05 C 391.54 48.14 390.86 54.99 385.83 57.91 C 381.09 60.48 374.15 59.81 370.93 55.15 C 366.76 48.84 368.79 37.58 377.32 36.37 M 378.15 41.18 C 374.54 43.33 374.74 48.43 375.92 51.93 C 376.91 55.67 382.94 55.53 383.77 51.76 C 385.45 47.66 384.32 39.27 378.15 41.18 Z" />
<path fill="#ffffff" opacity="1.00" d=" M 402.26 38.29 C 404.44 37.39 406.59 36.06 409.03 36.12 C 411.29 36.41 413.27 37.65 415.31 38.59 C 418.05 37.44 420.83 35.73 423.93 36.24 C 426.52 36.59 429.37 38.22 429.65 41.09 C 430.50 47.02 429.87 53.04 429.92 59.01 C 427.89 58.99 425.86 58.97 423.83 58.96 C 423.64 53.77 424.20 48.53 423.48 43.37 C 422.79 40.00 417.15 40.56 416.75 43.86 C 415.73 48.82 416.35 53.95 416.16 58.98 C 414.10 58.97 412.04 58.97 409.99 58.97 C 409.79 53.75 410.46 48.46 409.50 43.30 C 409.03 40.84 405.50 40.41 403.96 42.06 C 402.56 43.30 402.43 45.29 402.29 47.03 C 402.08 51.01 402.20 55.00 402.14 58.99 C 400.09 58.98 398.05 58.97 396.00 58.96 C 395.82 51.40 395.79 43.83 396.05 36.27 C 398.14 36.87 400.21 37.54 402.26 38.29 Z" />
<path fill="#ffffff" opacity="1.00" d=" M 469.28 38.39 C 471.73 37.33 474.21 35.79 477.00 36.19 C 480.14 36.40 483.33 38.73 483.52 42.06 C 484.02 47.66 483.57 53.30 483.69 58.91 C 481.70 58.95 479.70 58.99 477.72 59.03 C 477.53 54.00 478.09 48.90 477.30 43.90 C 476.90 39.97 470.56 40.30 469.88 43.93 C 468.67 48.84 469.35 53.97 469.16 58.98 C 467.14 58.97 465.12 58.97 463.10 58.97 C 463.05 51.41 462.70 43.86 463.10 36.31 C 465.21 36.83 467.28 37.51 469.28 38.39 Z" />
<path fill="#ffffff" opacity="1.00" d=" M 507.90 36.80 C 511.48 35.56 515.30 36.55 518.91 37.20 C 518.51 38.71 518.11 40.21 517.72 41.72 C 514.93 41.68 511.78 40.65 509.23 42.14 C 506.55 45.05 506.58 50.03 508.80 53.21 C 511.66 55.27 515.37 53.59 518.56 53.35 C 518.36 54.87 518.20 56.40 517.90 57.91 C 515.00 59.73 511.29 59.63 508.06 58.92 C 498.28 56.39 498.35 39.63 507.90 36.80 Z" />
<path fill="#ffffff" opacity="1.00" d=" M 524.04 37.93 C 528.67 36.49 534.06 34.92 538.58 37.54 C 540.89 38.77 541.55 41.54 541.62 43.96 C 541.88 48.92 541.63 53.90 541.69 58.87 C 540.50 58.91 539.31 58.96 538.13 59.01 C 537.41 58.37 536.69 57.74 535.99 57.10 C 532.87 58.40 529.51 60.14 526.07 59.04 C 520.73 57.78 520.00 49.29 524.71 46.77 C 528.39 45.08 532.55 45.08 536.47 44.28 C 535.60 43.18 534.68 42.13 533.72 41.13 C 530.89 40.64 528.05 41.47 525.26 41.87 C 524.84 40.56 524.44 39.24 524.04 37.93 M 527.97 52.03 C 527.50 54.48 530.79 55.62 532.65 54.61 C 535.37 53.92 535.17 50.66 535.83 48.51 C 533.26 49.24 527.96 48.09 527.97 52.03 Z" />
<path fill="#ffffff" opacity="1.00" d=" M 565.68 42.72 C 567.84 35.44 578.71 33.93 583.47 39.41 C 585.75 42.16 585.42 45.97 585.75 49.31 C 580.72 49.34 575.69 49.32 570.67 49.44 C 571.65 51.32 572.36 53.76 574.64 54.44 C 577.81 55.41 581.09 54.14 584.21 53.51 C 584.24 55.08 584.27 56.64 584.32 58.21 C 579.46 59.22 573.90 60.44 569.41 57.60 C 564.58 54.48 564.13 47.75 565.68 42.72 M 571.00 45.15 C 574.18 45.17 577.37 45.08 580.55 44.88 C 579.19 43.01 577.91 39.99 575.04 40.71 C 572.57 40.70 572.12 43.54 571.00 45.15 Z" />
<path fill="#ffffff" opacity="1.00" d=" M 619.59 36.49 C 623.37 35.60 627.93 36.33 630.52 39.46 C 632.73 42.21 632.40 45.97 632.79 49.27 C 627.76 49.34 622.73 49.32 617.71 49.42 C 618.68 51.26 619.32 53.71 621.56 54.41 C 624.75 55.46 628.08 54.14 631.23 53.50 C 631.24 55.08 631.26 56.66 631.29 58.24 C 627.28 59.01 623.09 60.01 619.07 58.81 C 609.10 56.11 609.42 38.67 619.59 36.49 M 618.03 45.15 C 621.19 45.16 624.36 45.07 627.52 44.88 C 626.18 42.96 624.90 39.98 622.00 40.72 C 619.55 40.75 619.05 43.49 618.03 45.15 Z" />
<path fill="#ffffff" opacity="1.00" d=" M 638.54 37.67 C 642.70 35.19 647.69 36.45 652.15 37.23 C 651.83 38.74 651.53 40.26 651.26 41.77 C 647.94 41.19 644.59 40.80 641.22 40.79 C 643.09 45.17 648.48 45.31 651.58 48.36 C 653.98 51.35 653.00 56.67 649.39 58.28 C 645.10 60.23 640.30 59.18 635.90 58.28 C 635.91 56.64 635.93 55.00 635.96 53.36 C 639.46 54.04 643.37 55.77 646.80 53.89 C 646.83 53.45 646.89 52.57 646.92 52.13 C 643.95 49.87 640.14 49.01 637.26 46.62 C 634.98 44.09 635.44 39.36 638.54 37.67 Z" />
<path fill="#ffffff" opacity="1.00" d=" M 676.66 38.07 C 680.97 36.70 685.73 35.19 690.19 36.86 C 692.47 37.59 694.19 39.68 694.43 42.07 C 695.05 47.66 694.57 53.30 694.70 58.91 C 693.48 58.93 692.28 58.95 691.08 58.96 C 690.38 58.35 689.69 57.73 689.01 57.12 C 685.88 58.41 682.51 60.13 679.07 59.03 C 673.73 57.78 673.02 49.30 677.72 46.78 C 681.14 44.96 685.15 45.22 688.89 44.76 C 688.06 43.47 688.02 41.01 686.02 41.01 C 683.53 40.98 681.09 41.63 678.60 41.53 C 677.87 40.42 677.27 39.24 676.66 38.07 M 680.94 52.02 C 680.44 54.42 683.77 55.63 685.65 54.62 C 688.34 53.89 688.17 50.66 688.86 48.51 C 686.25 49.22 681.11 48.07 680.94 52.02 Z" />
<path fill="#ffffff" opacity="1.00" d=" M 707.26 38.25 C 709.45 37.39 711.62 36.05 714.06 36.13 C 716.32 36.46 718.31 37.66 720.37 38.59 C 723.08 37.45 725.85 35.73 728.92 36.23 C 731.50 36.60 734.32 38.21 734.65 41.04 C 735.57 46.97 734.96 53.00 734.97 58.97 C 732.92 58.97 730.87 58.97 728.84 58.97 C 728.64 53.77 729.18 48.53 728.47 43.36 C 727.76 40.00 722.14 40.58 721.73 43.88 C 720.72 48.83 721.35 53.94 721.18 58.96 C 719.14 58.96 717.11 58.96 715.08 58.96 C 714.99 53.78 715.54 48.51 714.50 43.39 C 714.10 40.94 710.60 40.38 709.03 41.99 C 707.59 43.21 707.41 45.22 707.28 46.97 C 707.06 50.97 707.22 54.97 707.20 58.97 C 705.11 58.96 703.03 58.95 700.96 58.94 C 700.85 51.39 700.77 43.84 701.11 36.30 C 703.17 36.88 705.23 37.53 707.26 38.25 Z" />
<path fill="#ffffff" opacity="1.00" d=" M 748.34 36.36 C 753.44 35.19 759.42 37.90 761.00 43.09 C 762.54 48.16 761.85 54.95 756.87 57.88 C 752.10 60.51 745.12 59.78 741.86 55.12 C 737.87 48.77 739.77 37.55 748.34 36.36 M 749.19 41.15 C 746.37 42.55 746.00 46.11 746.24 48.90 C 746.42 51.12 747.18 53.89 749.64 54.52 C 751.74 55.25 754.19 53.93 754.77 51.78 C 755.68 48.86 755.70 45.46 754.25 42.71 C 753.28 40.92 750.96 40.65 749.19 41.15 Z" />
<path fill="#ffffff" opacity="1.00" d=" M 768.54 37.66 C 772.62 35.42 777.70 35.89 781.90 37.58 C 781.93 39.02 781.60 40.43 781.37 41.84 C 778.00 41.34 774.23 39.73 771.15 41.97 C 773.74 44.27 777.04 45.42 780.00 47.14 C 784.30 49.30 783.57 56.49 779.34 58.31 C 775.09 60.19 770.37 59.20 766.02 58.30 C 766.02 56.66 766.03 55.02 766.05 53.37 C 769.98 54.49 774.34 55.60 778.05 53.15 C 775.12 50.80 771.64 49.35 768.42 47.49 C 764.90 45.52 765.02 39.57 768.54 37.66 Z" />
<path fill="#ffffff" opacity="1.00" d=" M 435.87 36.75 C 437.97 36.72 440.07 36.70 442.17 36.68 C 442.57 42.36 441.27 48.33 443.16 53.80 C 445.40 54.75 449.02 54.66 449.73 51.79 C 451.01 46.94 450.40 41.86 450.37 36.91 C 452.48 36.85 454.58 36.79 456.70 36.74 C 456.67 44.13 456.67 51.52 456.71 58.91 C 455.48 58.95 454.25 59.00 453.04 59.04 C 452.27 58.48 451.51 57.93 450.76 57.37 C 447.65 58.51 444.34 60.03 440.98 59.06 C 438.13 58.53 436.29 55.76 436.05 53.01 C 435.38 47.61 435.83 42.16 435.87 36.75 Z" />
<path fill="#ffffff" opacity="1.00" d=" M 489.95 36.80 C 492.01 36.77 494.07 36.74 496.14 36.72 C 496.28 44.13 496.29 51.55 496.13 58.96 C 494.10 58.97 492.07 58.98 490.04 58.98 C 490.07 51.59 489.86 44.20 489.95 36.80 Z" />
<path fill="#ffffff" opacity="1.00" d=" M 167.34 42.48 C 173.88 41.89 181.38 41.02 187.10 44.93 C 193.89 50.85 196.61 60.23 196.69 68.99 C 196.74 78.39 197.53 88.44 192.84 96.99 C 188.10 106.23 175.65 110.00 166.39 105.56 C 160.38 103.15 156.41 97.43 154.60 91.40 C 152.01 82.50 152.53 73.07 153.21 63.93 C 153.58 57.51 156.22 51.30 160.46 46.48 C 162.24 44.45 164.65 42.91 167.34 42.48 M 173.31 52.32 C 169.90 53.31 168.02 56.85 167.11 60.05 C 165.66 65.57 166.28 71.35 166.11 76.99 C 166.11 82.61 166.06 88.80 169.53 93.55 C 172.06 96.93 177.87 96.59 180.20 93.15 C 183.63 88.15 183.66 81.79 183.74 75.96 C 183.68 69.58 183.99 62.84 181.17 56.94 C 179.88 53.95 176.64 51.64 173.31 52.32 Z" />
<path fill="#ffffff" opacity="1.00" d=" M 203.40 42.48 C 218.48 42.36 233.57 42.24 248.65 42.49 C 248.83 46.94 248.74 51.55 246.70 55.63 C 239.00 72.19 232.14 89.14 224.44 105.70 C 219.88 105.97 215.29 105.80 210.78 105.06 C 214.66 96.84 218.69 88.69 222.22 80.32 C 225.90 71.45 231.22 63.25 233.54 53.85 C 225.34 53.49 217.15 53.78 208.95 53.73 C 207.17 53.54 204.95 53.91 203.63 52.40 C 202.76 49.17 203.29 45.77 203.40 42.48 Z" />
<path fill="#ffffff" opacity="1.00" d=" M 260.20 48.13 C 265.12 42.56 272.95 41.41 279.99 42.19 C 289.03 42.59 296.41 50.37 298.25 58.91 C 299.26 64.87 298.75 70.96 298.81 76.98 C 298.96 85.36 295.78 93.83 289.82 99.77 C 284.57 104.72 277.23 106.53 270.27 107.45 C 266.85 107.73 263.00 108.04 260.04 105.97 C 257.50 103.76 258.72 100.10 258.84 97.21 C 266.50 97.20 275.06 97.45 281.40 92.43 C 285.79 88.90 286.41 82.92 287.32 77.75 C 283.71 80.03 280.26 82.98 275.92 83.72 C 271.17 84.37 265.97 83.81 261.98 80.94 C 258.10 78.25 255.56 73.79 255.25 69.06 C 254.75 61.89 254.37 53.41 260.20 48.13 M 275.36 52.48 C 271.33 53.21 268.19 56.86 268.17 60.97 C 268.07 64.66 267.33 69.78 271.04 72.02 C 274.56 73.23 278.60 73.22 282.18 72.23 C 285.28 70.02 287.26 65.85 285.90 62.09 C 284.73 57.33 281.07 51.37 275.36 52.48 Z" />
<path fill="#ffffff" opacity="1.00" d=" M 590.35 54.19 C 592.31 54.19 594.27 54.19 596.24 54.19 C 595.27 57.40 594.71 60.86 592.75 63.65 C 591.27 63.97 589.78 64.11 588.31 64.31 C 588.95 60.93 589.65 57.56 590.35 54.19 Z" />
<path fill="#ffffff" opacity="1.00" d=" M 546.47 84.34 C 548.61 84.31 550.76 84.29 552.91 84.26 C 553.05 95.18 552.88 106.09 553.04 117.00 C 551.43 116.97 549.83 116.93 548.23 116.90 C 547.73 116.12 547.23 115.35 546.74 114.58 C 544.11 116.14 541.20 118.05 537.99 117.21 C 533.72 116.46 531.46 111.98 531.18 108.01 C 530.66 103.05 531.21 96.77 536.04 94.03 C 539.36 91.99 543.19 93.80 546.49 94.90 C 546.47 91.38 546.47 87.86 546.47 84.34 M 541.33 98.41 C 537.02 99.66 537.22 105.43 538.01 108.96 C 538.65 112.70 544.70 113.51 546.18 110.04 C 547.23 107.38 547.11 104.35 546.49 101.60 C 546.07 99.29 543.53 97.94 541.33 98.41 Z" />
<path fill="#ffffff" opacity="1.00" d=" M 602.06 96.54 C 604.10 93.95 606.29 91.48 608.03 88.67 C 608.80 88.66 610.34 88.65 611.12 88.65 C 611.40 90.28 611.69 91.92 611.99 93.55 C 613.96 93.66 615.93 93.76 617.90 93.87 C 617.98 95.30 618.07 96.73 618.16 98.15 C 615.98 98.32 613.80 98.48 611.63 98.65 C 611.43 103.07 611.47 107.50 611.74 111.91 C 613.95 112.01 616.15 112.09 618.36 112.18 C 618.27 113.76 618.18 115.35 618.09 116.93 C 614.05 117.06 608.10 118.69 605.93 114.07 C 604.30 109.31 605.20 104.14 604.75 99.21 C 603.83 98.33 602.68 97.66 602.06 96.54 Z" />
<path fill="#ffffff" opacity="1.00" d=" M 350.81 95.36 C 353.75 93.96 357.11 92.09 360.39 93.62 C 364.88 95.35 366.20 100.63 366.16 104.98 C 366.20 109.32 365.09 114.68 360.71 116.67 C 357.37 118.31 353.80 116.63 350.63 115.43 C 350.67 119.33 350.70 123.24 350.74 127.15 C 348.55 127.19 346.37 127.23 344.19 127.27 C 344.21 116.03 344.25 104.79 344.16 93.55 C 346.49 93.66 348.80 94.11 350.81 95.36 M 354.32 98.26 C 349.99 99.13 350.44 104.68 350.85 108.02 C 350.85 111.35 354.83 113.45 357.52 111.43 C 359.88 108.98 359.78 105.11 359.22 101.98 C 358.99 99.63 356.65 97.81 354.32 98.26 Z" />
<path fill="#ffffff" opacity="1.00" d=" M 372.05 95.00 C 376.13 93.71 380.47 92.35 384.77 93.39 C 387.52 94.02 390.23 96.11 390.44 99.12 C 391.06 105.00 390.55 110.93 390.70 116.83 C 389.45 116.93 388.20 117.03 386.96 117.14 C 386.24 116.26 385.52 115.39 384.82 114.52 C 381.68 116.59 377.89 118.33 374.10 116.98 C 368.72 115.39 367.98 106.61 372.98 104.13 C 376.66 102.47 380.81 102.46 384.75 101.88 C 384.10 100.63 383.52 99.35 382.75 98.17 C 379.80 97.63 376.85 98.54 373.96 99.08 C 373.32 97.72 372.68 96.36 372.05 95.00 M 376.38 108.34 C 375.31 111.35 378.66 113.87 381.35 112.36 C 384.21 111.57 383.94 108.17 384.49 105.87 C 381.75 106.36 378.38 106.02 376.38 108.34 Z" />
<path fill="#ffffff" opacity="1.00" d=" M 403.56 96.41 C 406.15 94.12 409.35 92.87 412.82 92.92 C 412.57 94.81 412.32 96.69 412.06 98.58 C 409.41 99.42 405.48 99.15 404.24 102.19 C 403.12 107.01 403.79 112.02 403.74 116.92 C 401.55 116.93 399.37 116.95 397.19 116.96 C 397.21 109.16 397.21 101.35 397.19 93.55 C 399.77 93.40 402.05 94.26 403.56 96.41 Z" />
<path fill="#ffffff" opacity="1.00" d=" M 417.04 95.02 C 420.88 93.81 424.89 92.50 428.97 93.23 C 432.00 93.67 435.16 95.80 435.43 99.08 C 436.06 105.13 435.56 111.22 435.68 117.29 C 433.39 117.06 431.23 116.31 429.53 114.73 C 426.69 116.47 423.43 118.10 420.01 117.20 C 413.92 116.40 412.63 106.73 418.03 104.11 C 421.70 102.46 425.84 102.46 429.76 101.87 C 429.12 100.65 428.56 99.37 427.76 98.26 C 424.85 97.46 421.85 98.62 418.98 99.08 C 418.32 97.72 417.68 96.37 417.04 95.02 M 421.39 108.35 C 420.28 111.31 423.68 113.86 426.33 112.38 C 429.21 111.59 429.02 108.15 429.39 105.80 C 426.70 106.39 423.36 106.06 421.39 108.35 Z" />
<path fill="#ffffff" opacity="1.00" d=" M 453.99 95.02 C 458.05 93.74 462.36 92.36 466.65 93.36 C 469.46 93.97 472.23 96.09 472.44 99.14 C 473.06 105.19 472.57 111.28 472.68 117.34 C 470.40 117.05 468.26 116.29 466.52 114.78 C 463.43 116.68 459.73 118.28 456.08 116.97 C 450.72 115.35 449.95 106.54 455.04 104.12 C 458.69 102.49 462.79 102.45 466.69 101.85 C 466.08 100.63 465.56 99.37 464.80 98.24 C 461.85 97.58 458.87 98.54 455.97 99.00 C 455.30 97.67 454.64 96.35 453.99 95.02 M 458.29 109.86 C 458.20 112.36 461.41 113.42 463.37 112.36 C 466.29 111.58 465.93 108.15 466.44 105.83 C 463.70 106.53 458.27 105.80 458.29 109.86 Z" />
<path fill="#ffffff" opacity="1.00" d=" M 560.02 95.00 C 564.08 93.73 568.40 92.36 572.69 93.38 C 575.44 94.01 578.20 96.06 578.43 99.08 C 579.06 105.15 578.57 111.27 578.66 117.36 C 576.39 117.04 574.24 116.28 572.53 114.73 C 569.45 116.75 565.71 118.27 562.04 116.96 C 556.69 115.32 555.99 106.54 561.03 104.11 C 564.69 102.47 568.82 102.47 572.74 101.86 C 572.09 100.64 571.55 99.38 570.75 98.26 C 567.84 97.49 564.85 98.59 561.98 99.02 C 561.32 97.68 560.66 96.34 560.02 95.00 M 566.01 107.07 C 564.16 107.50 564.03 109.81 564.60 111.28 C 566.16 113.46 569.42 112.96 571.13 111.26 C 572.14 109.65 572.05 107.63 572.47 105.83 C 570.30 106.17 568.06 106.27 566.01 107.07 Z" />
<path fill="#ffffff" opacity="1.00" d=" M 591.28 96.65 C 593.95 94.30 597.21 92.84 600.82 92.89 C 600.58 94.79 600.33 96.69 600.08 98.59 C 597.41 99.40 593.45 99.14 592.23 102.22 C 591.12 107.04 591.79 112.03 591.74 116.92 C 589.55 116.94 587.37 116.95 585.19 116.96 C 585.21 109.30 585.22 101.63 585.19 93.97 C 586.50 93.79 587.82 93.62 589.15 93.44 C 589.85 94.51 590.56 95.58 591.28 96.65 Z" />
<path fill="#ffffff" opacity="1.00" d=" M 622.84 99.88 C 625.16 92.57 635.80 90.85 641.05 95.94 C 643.82 98.82 643.56 103.10 643.90 106.79 C 638.67 106.81 633.45 106.80 628.23 106.98 C 629.15 108.86 629.71 111.42 631.97 112.15 C 635.36 113.31 638.92 111.91 642.29 111.30 C 642.28 112.93 642.29 114.57 642.30 116.21 C 637.16 117.30 631.30 118.46 626.58 115.45 C 621.60 112.13 621.29 105.12 622.84 99.88 M 628.59 102.69 C 631.77 102.69 634.95 102.63 638.13 102.52 C 636.97 100.38 636.11 97.09 632.96 97.75 C 630.08 97.56 629.43 100.62 628.59 102.69 Z" />
<path fill="#ffffff" opacity="1.00" d=" M 476.09 93.63 C 478.29 93.68 480.52 93.61 482.71 94.03 C 485.26 99.11 486.36 104.77 488.42 110.06 C 490.57 104.77 491.43 99.00 494.04 93.91 C 496.12 93.62 498.22 93.64 500.32 93.59 C 497.95 101.23 494.82 108.60 492.14 116.12 C 490.76 119.52 489.56 123.30 486.60 125.69 C 483.99 127.72 480.47 127.02 477.40 127.11 C 477.39 125.60 477.40 124.10 477.41 122.60 C 479.78 121.83 483.07 121.97 484.30 119.36 C 485.61 117.13 484.36 114.59 483.63 112.41 C 481.10 106.15 478.46 99.95 476.09 93.63 Z" />
<path fill="#ffffff" opacity="1.00" d=" M 504.05 93.68 C 506.23 93.76 508.42 93.83 510.61 93.91 C 510.65 99.24 509.95 104.66 511.02 109.93 C 511.95 113.65 518.41 112.59 518.78 108.96 C 519.77 103.97 519.25 98.85 519.28 93.81 C 521.45 93.79 523.63 93.77 525.82 93.76 C 525.78 101.48 525.79 109.21 525.81 116.94 C 524.27 116.95 522.74 116.95 521.21 116.96 C 520.73 116.16 520.25 115.37 519.77 114.58 C 515.63 117.84 508.32 118.99 505.12 113.93 C 502.89 107.46 504.14 100.40 504.05 93.68 Z" />
</g>
</svg>
