<?xml version="1.0" encoding="UTF-8" ?>
<!DOCTYPE svg PUBLIC "-//W3C//DTD SVG 1.1//EN" "http://www.w3.org/Graphics/SVG/1.1/DTD/svg11.dtd">
<svg width="322pt" height="58pt" viewBox="0 0 322 58" version="1.1" xmlns="http://www.w3.org/2000/svg">
<g id="#ffffffff">
<path fill="#ffffff" opacity="1.00" d=" M 17.09 16.93 C 15.06 13.86 20.13 8.89 22.81 12.19 C 26.98 15.33 25.18 21.18 26.77 25.55 C 29.07 21.23 26.74 15.09 31.30 11.92 C 34.36 9.01 39.16 14.72 36.43 17.50 C 33.71 20.54 30.99 23.60 28.02 26.40 C 28.34 26.75 28.98 27.44 29.30 27.78 C 32.41 24.68 34.97 21.01 38.44 18.29 C 40.50 17.10 42.49 19.34 43.51 20.92 C 44.28 23.35 42.36 25.37 40.58 26.70 C 37.45 28.45 33.23 26.97 30.37 29.35 C 34.48 30.69 40.04 29.18 42.74 33.38 C 45.18 35.88 42.20 40.47 39.03 40.03 C 35.20 37.66 32.96 33.47 29.52 30.64 C 29.06 30.70 28.15 30.83 27.69 30.90 C 30.49 34.17 33.59 37.17 36.36 40.47 C 39.25 43.36 34.26 48.97 31.18 46.06 C 26.99 42.83 28.66 37.08 27.18 32.63 C 24.64 36.72 27.25 42.89 22.69 45.95 C 20.01 48.89 15.20 44.13 17.06 41.12 C 19.61 37.60 22.91 34.72 25.85 31.53 C 25.57 31.22 25.00 30.58 24.72 30.27 C 21.72 33.05 19.18 36.26 16.29 39.14 C 14.33 41.33 11.24 39.16 10.45 36.93 C 9.40 34.51 11.71 32.56 13.36 31.20 C 16.60 29.68 20.69 30.87 23.64 28.66 C 19.54 27.28 13.96 28.82 11.21 24.69 C 8.14 21.85 12.79 16.04 16.06 18.67 C 19.10 21.56 21.70 24.89 24.72 27.80 C 25.00 27.46 25.55 26.78 25.83 26.43 C 22.90 23.28 19.65 20.41 17.09 16.93 M 26.08 28.11 C 25.52 29.76 26.04 30.35 27.62 29.87 C 28.17 28.22 27.66 27.63 26.08 28.11 Z" />
<path fill="#ffffff" opacity="1.00" d=" M 194.99 12.97 C 195.80 12.18 196.84 11.68 197.80 11.11 C 197.84 12.83 196.33 13.60 195.13 14.49 C 196.99 17.29 196.03 20.75 196.29 23.88 C 195.78 23.93 194.76 24.02 194.25 24.07 C 194.30 20.37 193.93 16.57 194.99 12.97 Z" />
<path fill="#ffffff" opacity="1.00" d=" M 140.37 23.58 C 136.49 21.10 137.15 13.41 142.08 12.53 C 144.01 11.84 145.83 12.97 147.33 14.05 C 145.00 14.85 141.55 13.11 140.41 16.13 C 139.78 18.25 139.74 21.93 142.58 22.31 C 143.89 22.43 145.19 22.23 146.50 22.17 C 145.95 24.99 142.35 24.31 140.37 23.58 Z" />
<path fill="#ffffff" opacity="1.00" d=" M 215.31 16.20 C 216.23 15.14 217.08 14.02 218.02 12.98 C 218.21 13.49 218.60 14.50 218.80 15.01 C 219.74 15.40 220.67 15.82 221.59 16.27 C 220.80 16.51 219.20 16.98 218.41 17.22 C 218.76 19.34 217.42 23.33 220.97 22.60 C 220.97 22.97 220.97 23.71 220.96 24.08 C 219.59 24.02 218.23 23.94 216.86 23.84 C 216.16 21.32 217.00 18.37 215.31 16.20 Z" />
<path fill="#ffffff" opacity="1.00" d=" M 257.00 16.14 C 257.96 15.02 258.92 13.92 259.92 12.83 L 260.02 15.27 C 260.82 15.39 262.43 15.64 263.23 15.76 C 262.28 16.54 261.11 16.92 259.96 17.27 C 260.06 19.85 259.11 23.61 263.24 23.01 C 261.81 24.38 259.98 24.00 258.27 23.65 C 257.75 21.17 258.71 18.25 257.00 16.14 Z" />
<path fill="#ffffff" opacity="1.00" d=" M 158.31 15.09 C 159.03 15.34 159.75 15.59 160.47 15.84 C 162.09 14.96 163.83 15.16 165.43 15.95 C 167.26 15.17 170.41 14.41 171.02 17.08 C 171.25 19.38 171.11 21.70 171.12 24.00 C 170.63 24.00 169.63 24.00 169.13 24.00 C 169.09 21.71 169.31 19.39 168.85 17.13 C 164.55 15.46 165.95 21.59 165.73 24.05 C 165.23 24.01 164.23 23.95 163.73 23.91 C 163.27 21.59 164.99 17.79 162.23 16.62 C 159.19 17.59 160.56 21.52 160.26 23.91 C 159.76 23.95 158.75 24.02 158.25 24.06 C 158.25 21.07 158.23 18.08 158.31 15.09 Z" />
<path fill="#ffffff" opacity="1.00" d=" M 173.61 15.36 C 174.11 15.37 175.10 15.38 175.60 15.38 C 176.15 17.72 174.06 23.04 177.95 22.46 C 180.41 21.25 178.99 17.63 179.41 15.38 C 179.90 15.37 180.89 15.37 181.38 15.36 C 181.35 18.15 181.45 20.94 181.36 23.72 C 179.01 23.80 176.66 23.98 174.31 23.83 C 173.37 21.10 173.63 18.20 173.61 15.36 Z" />
<path fill="#ffffff" opacity="1.00" d=" M 183.99 15.48 C 186.20 15.96 188.53 14.66 190.63 15.62 C 192.57 17.91 191.46 21.23 191.77 23.97 C 191.27 23.98 190.28 24.00 189.78 24.02 C 189.78 21.53 189.73 19.05 189.38 16.58 C 188.62 16.79 187.09 17.21 186.32 17.42 C 185.86 19.58 186.01 21.81 185.97 24.00 C 185.48 24.00 184.49 24.00 184.00 24.00 C 184.00 21.16 184.00 18.32 183.99 15.48 Z" />
<path fill="#ffffff" opacity="1.00" d=" M 198.88 16.93 C 200.23 14.67 203.19 15.24 205.37 15.42 C 204.79 17.36 202.66 16.85 201.13 17.31 C 199.65 18.73 200.54 20.96 201.28 22.53 C 202.33 22.48 204.43 22.37 205.48 22.32 C 204.55 24.46 202.12 24.44 200.21 23.80 C 198.05 22.30 197.87 19.15 198.88 16.93 Z" />
<path fill="#ffffff" opacity="1.00" d=" M 206.48 16.64 C 208.34 14.96 212.42 14.09 213.50 16.98 C 213.96 19.38 213.70 21.85 213.74 24.29 C 213.01 23.96 212.28 23.64 211.55 23.31 C 209.76 24.51 206.36 24.69 206.26 21.86 C 205.65 18.52 209.86 18.87 212.01 18.43 C 211.80 18.03 211.39 17.22 211.18 16.82 C 209.61 16.82 208.04 16.76 206.48 16.64 M 208.98 20.35 C 206.82 22.23 211.01 23.75 211.66 21.48 C 212.45 19.83 209.85 19.48 208.98 20.35 Z" />
<path fill="#ffffff" opacity="1.00" d=" M 249.32 16.23 C 251.26 15.14 253.43 15.07 255.60 15.43 C 255.51 15.83 255.34 16.63 255.25 17.04 C 254.13 17.00 251.88 16.94 250.76 16.91 C 252.30 18.18 254.08 19.10 255.68 20.30 C 257.25 24.46 250.26 25.57 248.63 22.40 C 250.60 22.48 252.57 22.46 254.54 22.35 C 252.94 19.98 248.72 19.87 249.32 16.23 Z" />
<path fill="#ffffff" opacity="1.00" d=" M 264.33 16.36 C 265.83 14.83 268.28 14.96 270.18 15.58 C 271.99 18.15 270.94 21.59 270.84 24.50 C 270.37 24.08 269.43 23.23 268.96 22.81 C 268.95 22.05 268.91 20.54 268.90 19.78 C 268.17 19.91 266.71 20.18 265.98 20.31 C 265.93 20.85 265.88 21.38 265.83 21.92 C 266.18 22.40 268.81 23.20 267.39 24.04 C 264.63 25.63 262.41 21.23 264.48 19.51 C 265.97 18.71 267.73 18.78 269.35 18.41 C 268.87 15.80 265.96 17.51 264.33 16.36 Z" />
<path fill="#ffffff" opacity="1.00" d=" M 273.76 15.13 C 274.23 15.30 275.16 15.63 275.63 15.80 C 277.38 15.06 279.24 15.16 280.98 15.91 C 282.64 15.27 285.30 14.40 286.28 16.51 C 286.93 18.91 286.52 21.46 286.66 23.93 C 286.15 23.96 285.14 24.01 284.63 24.04 C 284.60 21.83 284.75 19.61 284.47 17.42 C 283.44 16.49 282.45 16.52 281.48 17.51 C 280.93 19.63 281.16 21.84 281.10 24.01 C 280.61 24.01 279.62 24.00 279.13 23.99 C 279.10 21.68 279.30 19.34 278.83 17.05 C 274.51 15.59 275.98 21.60 275.73 24.07 C 275.23 24.02 274.21 23.92 273.71 23.87 C 273.76 20.96 273.75 18.04 273.76 15.13 Z" />
<path fill="#ffffff" opacity="1.00" d=" M 290.51 15.71 C 293.01 14.14 296.98 15.87 296.85 19.03 C 297.47 21.85 294.92 24.90 291.95 24.09 C 288.10 23.66 287.43 17.48 290.51 15.71 M 290.89 22.18 C 292.07 22.16 293.78 23.14 294.40 21.60 C 295.35 19.86 294.86 16.04 292.08 16.86 C 289.86 17.52 291.05 20.51 290.89 22.18 Z" />
<path fill="#ffffff" opacity="1.00" d=" M 298.29 16.29 C 300.23 15.12 302.43 15.06 304.63 15.44 C 304.53 15.83 304.34 16.60 304.24 16.99 C 303.11 16.97 300.86 16.93 299.73 16.90 C 301.55 18.80 306.54 19.70 304.37 23.19 C 302.40 24.68 299.01 24.65 297.58 22.40 C 299.54 22.47 301.51 22.47 303.48 22.38 C 302.00 19.92 297.75 19.91 298.29 16.29 Z" />
<path fill="#ffffff" opacity="1.00" d=" M 150.38 14.92 C 151.06 17.34 149.49 19.73 150.16 22.23 C 151.40 22.16 153.91 23.06 153.97 21.01 C 154.77 18.93 152.67 16.98 153.56 14.91 C 157.47 16.94 157.06 24.45 151.99 24.18 C 147.12 24.21 146.72 17.10 150.38 14.92 Z" />
<path fill="#ffffff" opacity="1.00" d=" M 223.69 15.42 C 224.43 15.87 225.17 16.32 225.90 16.77 C 225.35 17.18 224.23 17.99 223.68 18.39 C 224.86 18.58 227.22 18.94 228.41 19.13 C 227.91 17.39 226.46 16.29 225.24 15.07 C 228.58 14.24 230.19 17.40 230.20 20.08 C 228.01 20.11 225.82 20.14 223.65 20.35 C 225.02 23.00 227.78 22.65 230.33 22.54 C 228.43 24.81 224.27 24.82 222.76 22.10 C 221.58 19.91 222.51 17.39 223.69 15.42 Z" />
<path fill="#ffffff" opacity="1.00" d=" M 241.64 15.44 C 242.38 15.87 243.12 16.30 243.86 16.73 C 243.32 17.24 242.24 18.25 241.70 18.76 C 243.31 18.75 244.94 18.72 246.51 18.32 C 245.59 17.48 243.76 15.80 242.84 14.96 C 246.36 14.02 248.12 17.28 248.10 20.09 C 245.94 20.11 243.79 20.14 241.64 20.29 C 242.90 23.08 245.75 22.59 248.29 22.44 C 246.40 25.08 241.60 24.76 240.44 21.59 C 239.49 19.46 240.67 17.31 241.64 15.44 Z" />
<path fill="#ffffff" opacity="1.00" d=" M 65.33 17.33 C 69.12 15.70 74.54 16.42 76.50 20.45 C 79.14 25.68 78.81 32.05 77.30 37.56 C 75.62 43.60 66.46 44.78 62.97 39.80 C 60.33 35.77 60.32 30.65 60.77 26.02 C 61.03 22.70 62.35 19.12 65.33 17.33 M 68.16 21.14 C 66.79 21.79 66.60 23.51 66.27 24.81 C 65.74 28.68 65.61 32.76 66.75 36.53 C 67.41 38.86 70.97 39.25 71.93 36.96 C 73.51 33.18 73.08 28.86 72.70 24.87 C 72.63 22.64 70.64 19.89 68.16 21.14 Z" />
<path fill="#ffffff" opacity="1.00" d=" M 80.75 17.00 C 86.87 17.00 92.99 17.00 99.11 17.00 C 98.97 18.77 99.07 20.64 98.24 22.27 C 95.24 29.00 92.32 35.77 89.38 42.52 C 87.47 42.51 85.56 42.50 83.65 42.49 C 86.97 35.54 90.10 28.51 93.28 21.49 C 89.10 21.51 84.93 21.50 80.75 21.50 C 80.75 20.00 80.75 18.50 80.75 17.00 Z" />
<path fill="#ffffff" opacity="1.00" d=" M 107.03 17.07 C 111.78 15.45 117.50 18.06 118.78 23.04 C 120.00 28.39 119.67 34.69 116.22 39.19 C 113.05 42.97 107.68 43.07 103.15 42.74 C 103.13 41.30 103.11 39.86 103.08 38.42 C 106.09 38.63 109.65 39.10 112.11 36.94 C 113.99 35.50 114.04 32.97 114.68 30.88 C 112.27 33.11 108.93 34.50 105.69 33.18 C 99.19 30.31 100.13 18.88 107.03 17.07 M 108.35 21.48 C 106.16 23.02 106.14 26.47 107.51 28.57 C 109.69 30.55 113.97 29.19 114.03 26.10 C 114.39 23.17 111.37 19.52 108.35 21.48 Z" />
<path fill="#ffffff" opacity="1.00" d=" M 231.33 26.48 C 231.70 24.57 231.45 21.68 234.19 21.65 C 233.66 23.48 233.55 25.88 231.33 26.48 Z" />
<path fill="#ffffff" opacity="1.00" d=" M 211.81 33.84 C 212.50 33.86 213.20 33.87 213.89 33.89 C 213.87 37.91 213.83 41.93 213.93 45.96 C 211.49 45.03 208.11 47.30 206.52 44.57 C 205.50 42.62 205.57 39.73 207.09 38.05 C 208.39 36.48 210.40 37.50 212.01 37.76 C 211.94 36.45 211.87 35.15 211.81 33.84 M 208.51 44.52 C 209.53 44.47 210.54 44.42 211.56 44.36 C 211.70 42.38 212.89 39.07 209.90 38.71 C 207.13 39.16 208.05 42.61 208.51 44.52 Z" />
<path fill="#ffffff" opacity="1.00" d=" M 225.89 37.45 C 229.01 37.43 233.03 38.72 234.61 35.08 C 234.77 37.14 236.83 37.53 238.19 38.51 C 237.42 38.63 235.90 38.86 235.14 38.98 C 235.12 40.73 235.11 42.48 235.10 44.24 C 235.92 44.41 237.56 44.74 238.38 44.90 C 237.11 46.48 234.06 46.79 233.28 44.63 C 232.74 42.44 233.49 39.95 232.05 38.01 C 230.75 38.98 228.45 39.11 227.97 40.94 C 227.81 42.72 227.86 44.50 227.81 46.29 C 227.35 46.15 226.43 45.86 225.98 45.72 C 225.74 42.97 225.90 40.21 225.89 37.45 Z" />
<path fill="#ffffff" opacity="1.00" d=" M 138.36 36.97 C 139.06 37.28 139.77 37.59 140.47 37.90 C 141.76 37.53 143.20 36.67 144.49 37.58 C 146.72 39.08 146.60 42.48 145.56 44.66 C 144.56 46.82 141.78 46.07 140.07 45.39 C 140.18 46.87 140.28 48.34 140.36 49.82 C 139.84 49.84 138.79 49.88 138.27 49.90 C 138.26 45.59 138.17 41.28 138.36 36.97 M 140.80 38.96 C 140.22 40.64 140.04 42.46 140.79 44.12 C 145.28 46.87 145.39 36.67 140.80 38.96 Z" />
<path fill="#ffffff" opacity="1.00" d=" M 148.55 37.49 C 150.41 37.36 152.35 36.92 154.17 37.56 C 155.99 40.09 154.81 43.47 155.10 46.37 C 154.15 45.66 153.21 44.95 152.26 44.25 L 153.59 41.83 C 152.71 41.92 150.95 42.12 150.07 42.22 C 149.97 42.83 149.88 43.44 149.79 44.05 C 150.89 44.67 151.98 45.32 153.05 46.00 C 151.07 46.12 148.14 46.77 147.72 44.07 C 147.04 40.64 151.13 40.84 153.34 40.41 C 153.12 37.25 148.63 40.55 148.55 37.49 Z" />
<path fill="#ffffff" opacity="1.00" d=" M 159.53 38.57 C 160.64 37.77 161.81 37.04 163.23 36.99 C 163.56 39.11 161.20 39.11 159.91 40.02 C 159.68 42.01 159.74 44.01 159.73 46.00 C 159.23 46.00 158.24 46.00 157.75 46.00 C 157.74 42.93 157.71 39.85 157.85 36.78 C 158.27 37.23 159.11 38.13 159.53 38.57 Z" />
<path fill="#ffffff" opacity="1.00" d=" M 164.36 38.75 C 165.78 36.72 169.05 36.58 170.81 38.20 C 171.61 40.89 171.44 43.88 170.71 46.57 C 169.33 45.33 168.47 43.73 169.12 41.85 C 167.81 42.07 165.42 41.86 165.89 43.90 C 166.91 44.65 168.01 45.31 169.07 46.02 C 167.10 46.05 164.17 46.76 163.83 44.04 C 163.35 40.43 167.69 40.95 169.94 40.15 C 168.54 38.36 166.29 38.96 164.36 38.75 Z" />
<path fill="#ffffff" opacity="1.00" d=" M 178.29 37.55 C 180.61 37.01 183.12 36.85 184.89 38.72 C 184.86 41.12 184.86 43.52 184.95 45.92 C 182.52 44.93 178.08 47.67 177.44 43.99 C 176.80 40.68 181.22 40.78 183.32 40.33 C 182.30 38.73 180.74 38.27 178.62 38.97 C 178.54 38.62 178.37 37.91 178.29 37.55 M 179.24 43.90 C 181.00 45.69 183.31 43.80 183.32 41.66 C 181.71 41.97 179.65 41.91 179.24 43.90 Z" />
<path fill="#ffffff" opacity="1.00" d=" M 186.14 37.35 C 186.70 37.37 187.83 37.41 188.39 37.43 C 189.13 39.60 189.85 41.78 190.48 43.98 C 191.15 41.80 191.87 39.63 192.56 37.45 C 193.13 37.40 194.27 37.29 194.84 37.24 C 193.39 41.01 192.23 44.91 190.44 48.54 C 189.39 50.26 187.18 49.91 185.68 49.02 C 187.10 48.22 189.43 48.10 189.53 46.01 C 188.56 43.06 187.25 40.24 186.14 37.35 Z" />
<path fill="#ffffff" opacity="1.00" d=" M 196.36 36.77 C 200.39 37.81 195.78 44.25 200.10 44.68 C 203.66 43.34 199.98 37.96 203.61 36.70 C 203.97 39.77 203.85 42.86 203.93 45.95 C 201.53 44.91 197.67 47.48 196.35 44.62 C 195.84 42.04 196.17 39.37 196.36 36.77 Z" />
<path fill="#ffffff" opacity="1.00" d=" M 216.42 38.91 C 217.60 36.63 221.06 36.60 222.79 38.19 C 223.69 40.79 223.11 43.67 223.22 46.39 C 222.22 45.66 221.23 44.93 220.22 44.22 C 224.14 41.85 217.13 40.73 217.84 43.88 C 218.88 44.64 220.00 45.30 221.08 46.02 C 219.17 46.05 216.14 46.77 215.84 44.05 C 215.34 40.43 219.71 40.94 221.95 40.15 C 220.55 38.32 218.37 38.91 216.42 38.91 Z" />
<path fill="#ffffff" opacity="1.00" d=" M 238.84 42.01 C 238.49 39.38 240.77 36.31 243.72 37.06 C 242.53 38.31 241.16 39.45 240.61 41.14 C 241.78 40.94 244.12 40.52 245.30 40.32 C 244.74 39.94 243.63 39.17 243.07 38.79 C 243.82 38.33 244.57 37.87 245.33 37.41 C 246.20 38.84 246.65 40.45 246.77 42.11 C 244.68 42.12 242.59 42.13 240.51 42.19 C 241.28 45.22 244.23 44.54 246.64 44.39 C 244.87 47.90 238.34 46.04 238.84 42.01 Z" />
</g>
</svg>
