<?xml version="1.0" encoding="UTF-8" ?>
<!DOCTYPE svg PUBLIC "-//W3C//DTD SVG 1.1//EN" "http://www.w3.org/Graphics/SVG/1.1/DTD/svg11.dtd">
<svg width="190pt" height="190pt" viewBox="0 0 190 190" version="1.1" xmlns="http://www.w3.org/2000/svg">
<g id="#611232ff">
</g>
<g id="#f3f0f3ff">
<path fill="#f3f0f3" opacity="1.00" d=" M 78.15 4.56 C 93.73 1.55 110.12 1.94 125.38 6.46 C 145.52 12.39 162.78 26.17 174.71 43.25 C 185.15 58.28 190.53 76.69 190.00 94.97 C 190.22 104.68 188.85 114.44 185.79 123.66 C 185.11 127.68 183.37 131.46 181.35 134.97 C 173.09 151.53 159.88 165.52 144.00 174.99 C 116.21 190.99 79.86 191.00 52.07 175.02 C 31.43 162.70 14.92 142.68 8.87 119.21 C 5.80 108.40 5.67 97.06 6.20 85.91 C 7.63 67.43 15.05 49.39 27.35 35.46 C 40.30 20.00 58.26 8.50 78.15 4.56 M 85.44 24.60 C 55.04 29.32 29.57 56.46 27.22 87.19 C 26.25 96.10 26.99 105.21 29.26 113.87 C 33.65 130.97 45.35 145.66 60.02 155.22 C 75.69 165.35 95.45 168.15 113.57 164.36 C 131.19 160.82 146.73 149.60 156.94 134.98 C 170.01 116.36 172.50 91.40 165.05 70.09 C 158.05 51.19 142.67 35.56 123.94 28.16 C 111.73 23.51 98.28 22.65 85.44 24.60 Z" />
<path fill="#f3f0f3" opacity="1.00" d=" M 93.38 40.49 C 99.99 38.01 108.12 41.55 110.55 48.22 C 112.76 53.48 111.06 60.01 106.60 63.56 C 101.10 68.42 91.77 67.42 87.39 61.52 C 81.64 54.78 84.96 43.21 93.38 40.49 Z" />
<path fill="#f3f0f3" opacity="1.00" d=" M 96.93 71.01 C 111.88 70.85 126.49 67.28 141.03 64.23 C 146.78 64.62 148.32 73.84 142.89 75.90 C 132.56 78.53 122.06 80.74 111.48 82.11 C 111.35 96.34 112.37 110.60 115.26 124.55 C 116.35 130.24 119.47 135.29 120.93 140.86 C 122.04 145.42 117.39 149.91 112.88 148.90 C 110.30 148.68 108.39 146.48 107.61 144.14 C 104.18 134.96 100.95 125.56 99.90 115.77 C 98.63 115.67 97.37 115.67 96.11 115.77 C 94.99 125.81 91.69 135.45 88.09 144.84 C 86.76 148.79 81.31 150.26 78.03 147.84 C 74.97 146.04 74.20 141.79 75.71 138.75 C 83.96 121.10 84.46 101.23 84.51 82.11 C 74.25 80.79 64.13 78.50 54.06 76.19 C 50.81 75.61 49.53 71.91 50.27 69.02 C 50.80 65.62 54.82 63.91 57.89 64.75 C 70.73 67.78 83.73 70.38 96.93 71.01 Z" />
</g>
<g id="#9c6c80ff">
<path fill="#9c6c80" opacity="1.00" d=" M 85.44 24.60 C 98.28 22.65 111.73 23.51 123.94 28.16 C 142.67 35.56 158.05 51.19 165.05 70.09 C 172.50 91.40 170.01 116.36 156.94 134.98 C 146.73 149.60 131.19 160.82 113.57 164.36 C 95.45 168.15 75.69 165.35 60.02 155.22 C 45.35 145.66 33.65 130.97 29.26 113.87 C 26.99 105.21 26.25 96.10 27.22 87.19 C 29.57 56.46 55.04 29.32 85.44 24.60 M 93.38 40.49 C 84.96 43.21 81.64 54.78 87.39 61.52 C 91.77 67.42 101.10 68.42 106.60 63.56 C 111.06 60.01 112.76 53.48 110.55 48.22 C 108.12 41.55 99.99 38.01 93.38 40.49 M 96.93 71.01 C 83.73 70.38 70.73 67.78 57.89 64.75 C 54.82 63.91 50.80 65.62 50.27 69.02 C 49.53 71.91 50.81 75.61 54.06 76.19 C 64.13 78.50 74.25 80.79 84.51 82.11 C 84.46 101.23 83.96 121.10 75.71 138.75 C 74.20 141.79 74.97 146.04 78.03 147.84 C 81.31 150.26 86.76 148.79 88.09 144.84 C 91.69 135.45 94.99 125.81 96.11 115.77 C 97.37 115.67 98.63 115.67 99.90 115.77 C 100.95 125.56 104.18 134.96 107.61 144.14 C 108.39 146.48 110.30 148.68 112.88 148.90 C 117.39 149.91 122.04 145.42 120.93 140.86 C 119.47 135.29 116.35 130.24 115.26 124.55 C 112.37 110.60 111.35 96.34 111.48 82.11 C 122.06 80.74 132.56 78.53 142.89 75.90 C 148.32 73.84 146.78 64.62 141.03 64.23 C 126.49 67.28 111.88 70.85 96.93 71.01 Z" />
</g>
</svg>
