<?xml version="1.0" encoding="UTF-8" ?>
<!DOCTYPE svg PUBLIC "-//W3C//DTD SVG 1.1//EN" "http://www.w3.org/Graphics/SVG/1.1/DTD/svg11.dtd">
<svg width="75pt" height="74pt" viewBox="0 0 75 74" version="1.1" xmlns="http://www.w3.org/2000/svg">
<g id="#e9e9e9ff">
</g>
<g id="#656565ff">
<path fill="#31708f" opacity="1.00" d=" M 30.44 1.57 C 41.23 -0.59 52.89 2.58 61.15 9.85 C 74.58 21.25 77.26 42.79 67.22 57.21 C 58.73 70.32 41.18 76.27 26.38 71.44 C 15.88 68.28 7.16 59.95 3.41 49.65 C -0.54 38.97 0.77 26.41 7.19 16.96 C 12.40 8.94 21.03 3.26 30.44 1.57 M 30.24 6.35 C 20.86 8.35 12.68 15.01 8.72 23.73 C 2.15 37.30 7.05 55.21 19.89 63.24 C 33.01 72.30 52.73 69.11 62.18 56.22 C 71.95 44.01 70.45 24.62 58.87 14.09 C 51.39 6.93 40.30 4.07 30.24 6.35 Z" />
<path fill="#31708f" opacity="1.00" d=" M 35.16 17.24 C 37.89 15.83 41.85 17.78 41.83 20.99 C 42.24 24.45 37.84 27.12 34.94 25.17 C 31.77 23.67 32.00 18.63 35.16 17.24 Z" />
<path fill="#31708f" opacity="1.00" d=" M 31.29 32.13 C 34.55 31.20 37.99 31.22 41.34 30.80 C 39.98 38.63 37.78 46.32 36.91 54.23 C 38.49 54.04 40.07 53.85 41.65 53.68 C 40.60 56.97 36.63 57.82 33.59 57.67 C 31.30 57.69 30.05 55.05 30.51 53.05 C 31.58 46.90 33.15 40.83 34.33 34.70 C 33.16 34.38 32.00 34.03 30.84 33.66 C 30.95 33.28 31.17 32.51 31.29 32.13 Z" />
</g>
</svg>
