<?xml version="1.0" standalone="no"?>
<!DOCTYPE svg PUBLIC "-//W3C//DTD SVG 20010904//EN"
 "http://www.w3.org/TR/2001/REC-SVG-20010904/DTD/svg10.dtd">
<svg version="1.0" xmlns="http://www.w3.org/2000/svg"
 width="241.000000pt" height="227.000000pt" viewBox="0 0 241.000000 227.000000"
 preserveAspectRatio="xMidYMid meet">

<g transform="translate(0.000000,227.000000) scale(0.100000,-0.100000)"
fill="#C0B392" stroke="none">
<path d="M1080 1884 c-214 -40 -382 -125 -507 -256 -137 -146 -223 -358 -223
-553 0 -267 147 -532 376 -679 477 -305 1112 -70 1266 471 29 102 31 304 4
403 -81 294 -302 511 -601 592 -68 18 -262 32 -315 22z m210 -498 c0 -51 2
-115 5 -142 4 -38 3 -43 -5 -24 -7 19 -8 8 -5 -40 3 -47 2 -58 -5 -40 -7 18
-8 7 -5 -40 3 -47 2 -58 -5 -40 -7 18 -8 7 -5 -40 3 -48 2 -58 -5 -40 -7 19
-8 10 -5 -35 3 -41 2 -54 -4 -40 -8 17 -10 18 -10 3 -1 -15 -11 -18 -71 -18
-60 0 -70 3 -71 18 0 15 -2 14 -10 -3 -6 -14 -7 -1 -4 40 3 45 2 54 -5 35 -7
-19 -9 -9 -5 40 3 47 1 58 -5 40 -7 -18 -8 -7 -5 40 3 47 1 58 -5 40 -7 -18
-8 -7 -5 40 3 47 1 58 -5 40 -7 -19 -8 -11 -5 30 3 30 5 94 5 143 l0 87 120 0
120 0 0 -94z m17 -58 c-2 -29 -3 -6 -3 52 0 58 1 81 3 53 2 -29 2 -77 0 -105z
m-260 -655 c-2 -32 -3 -8 -3 52 0 61 1 87 3 58 2 -29 2 -78 0 -110z m233 52
l0 -105 -110 0 -110 0 0 105 0 105 110 0 110 0 0 -105z m17 -52 c-2 -32 -3 -8
-3 52 0 61 1 87 3 58 2 -29 2 -78 0 -110z"/>
</g>
</svg>
