<?xml version="1.0" standalone="no"?>
<!DOCTYPE svg PUBLIC "-//W3C//DTD SVG 20010904//EN"
 "http://www.w3.org/TR/2001/REC-SVG-20010904/DTD/svg10.dtd">
<svg version="1.0" xmlns="http://www.w3.org/2000/svg"
 width="172.000000pt" height="164.000000pt" viewBox="0 0 172.000000 164.000000"
 preserveAspectRatio="xMidYMid meet">

<g transform="translate(0.000000,164.000000) scale(0.100000,-0.100000)"
fill="#C0B392" stroke="none">
<path d="M1270 815 l0 -705 140 0 140 0 0 705 0 705 -140 0 -140 0 0 -705z"/>
<path d="M860 640 l0 -530 135 0 135 0 0 530 0 530 -135 0 -135 0 0 -530z"/>
<path d="M490 470 l0 -360 130 0 130 0 0 360 0 360 -130 0 -130 0 0 -360z"/>
<path d="M150 320 l0 -210 125 0 125 0 0 210 0 210 -125 0 -125 0 0 -210z"/>
</g>
</svg>
