<?xml version="1.0" encoding="UTF-8" ?>
<!DOCTYPE svg PUBLIC "-//W3C//DTD SVG 1.1//EN" "http://www.w3.org/Graphics/SVG/1.1/DTD/svg11.dtd">
<svg width="24pt" height="24pt" viewBox="0 0 24 24" version="1.1" xmlns="http://www.w3.org/2000/svg">
<g id="#ffffffff">
<path fill="#ffffff" opacity="1.00" d=" M 13.45 0.00 L 17.52 0.00 C 17.57 1.41 17.58 2.82 17.57 4.23 C 16.66 4.29 14.85 4.40 13.94 4.46 C 13.86 5.59 13.83 6.72 13.86 7.85 C 14.78 7.85 16.63 7.86 17.55 7.87 C 17.46 9.21 17.34 10.56 17.20 11.90 C 16.37 11.91 14.71 11.93 13.88 11.94 C 13.81 15.96 13.88 19.98 13.80 24.00 L 9.07 24.00 C 8.92 20.02 8.99 16.03 8.99 12.05 C 8.36 12.02 7.09 11.96 6.46 11.92 C 6.45 10.58 6.46 9.23 6.49 7.89 C 7.11 7.88 8.35 7.85 8.97 7.83 C 8.51 4.54 9.17 -0.06 13.45 0.00 Z" />
</g>
</svg>
