<?xml version="1.0" encoding="UTF-8" ?>
<!DOCTYPE svg PUBLIC "-//W3C//DTD SVG 1.1//EN" "http://www.w3.org/Graphics/SVG/1.1/DTD/svg11.dtd">
<svg width="24pt" height="24pt" viewBox="0 0 24 24" version="1.1" xmlns="http://www.w3.org/2000/svg">
<g id="#ffffffff">
<path fill="#fff" opacity="0.76" d=" M 5.29 1.38 C 8.83 0.69 12.50 1.12 16.09 1.04 C 19.16 0.79 22.26 2.90 22.80 6.00 C 23.16 9.69 23.03 13.41 22.91 17.11 C 22.80 20.16 20.16 22.82 17.11 22.90 C 13.42 23.00 9.71 23.12 6.04 22.80 C 2.43 22.24 0.58 18.40 1.00 15.03 C 1.22 10.38 -0.47 3.33 5.29 1.38 M 5.30 3.02 C 4.54 3.78 3.78 4.55 3.02 5.33 C 2.96 9.77 2.96 14.22 3.02 18.67 C 3.78 19.44 4.55 20.21 5.32 20.98 C 9.77 21.07 14.22 21.07 18.67 20.98 C 19.44 20.21 20.21 19.43 20.98 18.65 C 21.04 14.21 21.04 9.77 20.98 5.34 C 20.22 4.56 19.45 3.79 18.68 3.02 C 14.22 2.93 9.76 2.93 5.30 3.02 Z" />
<path fill="#fff" opacity="0.76" d=" M 16.67 5.57 C 17.37 3.98 19.97 5.30 19.02 7.05 C 17.87 8.24 15.59 7.13 16.67 5.57 Z" />
<path fill="#fff" opacity="0.76" d=" M 11.46 6.73 C 14.98 6.15 18.14 9.69 17.18 13.15 C 16.64 17.57 10.09 18.75 7.68 15.23 C 5.30 12.13 7.34 6.76 11.46 6.73 M 9.28 9.28 C 8.27 11.04 8.19 12.93 9.26 14.68 C 9.95 14.96 11.32 15.52 12.00 15.80 C 12.69 15.52 14.05 14.96 14.73 14.68 C 15.80 12.92 15.72 11.03 14.70 9.26 C 14.02 9.00 12.67 8.47 11.99 8.20 C 11.31 8.47 9.96 9.01 9.28 9.28 Z" />
</g>
</svg>
