<?xml version="1.0" encoding="UTF-8" ?>
<!DOCTYPE svg PUBLIC "-//W3C//DTD SVG 1.1//EN" "http://www.w3.org/Graphics/SVG/1.1/DTD/svg11.dtd">
<svg width="25pt" height="25pt" viewBox="0 0 25 25" version="1.1" xmlns="http://www.w3.org/2000/svg">
<g id="#ffffffff">
<path fill="#fff" opacity="1" d=" M 21.02 1.89 C 21.75 1.77 22.50 1.70 23.24 1.69 C 20.64 4.91 17.78 7.90 14.88 10.84 C 17.61 15.14 21.03 18.95 23.83 23.21 C 21.54 23.27 19.25 23.27 16.97 23.26 C 14.90 20.58 12.92 17.83 10.89 15.13 C 8.37 17.69 6.08 20.47 3.53 23.00 C 2.94 23.07 1.76 23.19 1.17 23.25 C 3.87 19.90 6.98 16.92 9.84 13.72 C 6.98 9.72 3.92 5.87 1.18 1.78 C 3.39 1.75 5.62 1.54 7.82 1.85 C 9.95 4.24 11.67 6.96 13.66 9.46 C 16.25 7.07 18.46 4.31 21.02 1.89 M 4.52 3.42 C 7.85 8.38 11.62 13.02 15.10 17.86 C 16.55 19.70 17.76 22.39 20.61 21.70 C 17.19 16.71 13.37 12.01 9.82 7.11 C 8.45 5.36 7.21 2.78 4.52 3.42 Z" />
</g>
</svg>
