<?xml version="1.0" encoding="UTF-8" ?>
<!DOCTYPE svg PUBLIC "-//W3C//DTD SVG 1.1//EN" "http://www.w3.org/Graphics/SVG/1.1/DTD/svg11.dtd">
<svg width="24pt" height="24pt" viewBox="0 0 24 24" version="1.1" xmlns="http://www.w3.org/2000/svg">
<g id="#ffffffff">
<path fill="#ffffff" opacity="1.00" d=" M 6.42 4.57 C 10.92 4.27 15.53 4.10 19.96 5.09 C 22.41 6.36 21.78 9.71 22.08 12.00 C 21.80 14.29 22.55 17.73 20.00 18.93 C 14.76 19.93 9.27 19.92 4.01 19.03 C 2.46 18.91 1.74 17.32 1.70 15.95 C 1.36 12.71 1.23 9.34 2.09 6.18 C 3.01 4.70 4.92 4.84 6.42 4.57 M 9.12 8.65 C 9.12 10.89 9.12 13.12 9.12 15.35 C 11.09 14.24 13.05 13.11 15.02 11.99 C 13.05 10.88 11.10 9.74 9.12 8.65 Z" />
</g>
</svg>
